<svg xmlns="http://www.w3.org/2000/svg" viewBox="0 0 64 64" width="30" height="30"><linearGradient id="o_cJ~5wMX7_5cR9c9kiNra" x1="3.511" x2="57.278" y1="51.044" y2="51.044" gradientUnits="userSpaceOnUse"><stop offset="0" stop-color="#6dc7ff"/><stop offset="1" stop-color="#e6abff"/></linearGradient><path fill="url(#o_cJ~5wMX7_5cR9c9kiNra)" d="M50.486,48.49c-5.784,2.462-12.923,3.692-18.587,3.692c-8.365,0-15.875-2.212-22.519-6.029 c-0.495-0.245-0.986,0.245-0.495,0.74C15.039,52.433,23.039,56,32.025,56c6.279,0,14.029-2.337,19.202-6.154 C52.087,49.231,51.347,48.245,50.486,48.49z"/><linearGradient id="o_cJ~5wMX7_5cR9c9kiNrb" x1="3.511" x2="57.278" y1="49.16" y2="49.16" gradientUnits="userSpaceOnUse"><stop offset="0" stop-color="#6dc7ff"/><stop offset="1" stop-color="#e6abff"/></linearGradient><path fill="url(#o_cJ~5wMX7_5cR9c9kiNrb)" d="M55.164,45.538c-0.495-0.74-5.293-1.356-8.125,0.74c-0.49,0.365-0.37,0.736,0.125,0.736 c1.601-0.12,5.293-0.615,5.909,0.245c0.615,0.865-0.74,4.308-1.356,5.788c-0.245,0.365,0.245,0.615,0.615,0.245 C55.039,51.077,55.654,46.279,55.164,45.538z"/><g><linearGradient id="o_cJ~5wMX7_5cR9c9kiNrc" x1="32" x2="32" y1="8.149" y2="44.066" gradientUnits="userSpaceOnUse"><stop offset="0" stop-color="#1a6dff"/><stop offset="1" stop-color="#c822ff"/></linearGradient><path fill="url(#o_cJ~5wMX7_5cR9c9kiNrc)" d="M41.086,45.002c-0.375,0-0.768-0.088-1.139-0.271c-0.075-0.038-0.146-0.084-0.21-0.139 c-1.682-1.449-2.366-2.381-3.114-3.521c-3.204,2.882-5.944,3.881-10.317,3.881C19.949,44.953,16,40.909,16,34.4 c0-5.032,2.66-9.022,7.298-10.945c3.229-1.35,6.949-1.463,10.604-1.473v-2.496c0-2.425-2.534-2.495-2.823-2.495 c-1.012,0-3.417,0.273-3.908,2.804C26.919,21,26.112,21.77,25.112,21.77c-0.038,0-0.076-0.002-0.114-0.006l-6.084-0.701 c-0.042-0.005-0.084-0.013-0.125-0.022c-1.208-0.297-1.878-1.24-1.706-2.401C18.445,11.761,23.668,8,31.798,8 c1.538,0,6.811,0.238,10.107,3.298c3.303,3.094,3.303,7.041,3.303,11.219v9.667c0,2.362,0.849,3.428,1.923,4.778l0.242,0.305 c0.462,0.563,0.681,1.205,0.615,1.806c-0.058,0.534-0.326,1.002-0.775,1.356c-1.427,1.141-3.981,3.382-4.73,4.042 C42.133,44.818,41.628,45.002,41.086,45.002z M40.924,42.974c0.104,0.032,0.189,0.029,0.219,0.018 c0.775-0.689,3.36-2.957,4.828-4.13c0.029-0.03-0.002-0.153-0.147-0.33c-0.005-0.006-0.01-0.012-0.015-0.018l-0.243-0.307 c-1.159-1.457-2.357-2.962-2.357-6.023v-9.667c0-4.055,0-7.258-2.667-9.756C38.35,10.726,34.587,10,31.798,10 c-5.002,0-11.273,1.558-12.745,8.979c0.01,0.033,0.066,0.073,0.165,0.104l5.885,0.678c-0.01-0.032,0.066-0.162,0.108-0.363 c0.525-2.713,2.775-4.408,5.868-4.408c2.323,0,4.823,1.407,4.823,4.495v3.495c0,0.552-0.447,1-1,1c-3.774,0-7.679,0-10.836,1.32 C20.153,26.924,18,30.155,18,34.4c0,5.356,3.104,8.553,8.306,8.553c4.213,0,6.596-1.007,9.805-4.144 c0.214-0.208,0.505-0.31,0.807-0.279c0.297,0.032,0.563,0.195,0.728,0.444l0.379,0.581C38.816,40.779,39.347,41.598,40.924,42.974z M28.884,38.052c-3.383,0-4.611-2.707-4.611-4.525c0-6.875,7.449-6.875,10.63-6.875c0.553,0,1,0.448,1,1v1.294 C35.902,34.988,33.541,38.052,28.884,38.052z M33.902,28.664c-5.472,0.146-7.63,1.549-7.63,4.863 c0.006,0.416,0.159,2.525,2.611,2.525c4.448,0,5.019-3.798,5.019-7.106V28.664z"/></g></svg>
