<svg xmlns="http://www.w3.org/2000/svg" viewBox="0 0 64 64" width="30" height="30"><linearGradient id="tnlUUDtE6nUCG4rryMwCka" x1="34.083" x2="29.773" y1="4.872" y2="57.75" gradientUnits="userSpaceOnUse" spreadMethod="reflect"><stop offset="0" stop-color="#1a6dfd"/><stop offset="1" stop-color="#c522fd"/></linearGradient><path fill="url(#tnlUUDtE6nUCG4rryMwCka)" d="M37,58h-9c-0.552,0-1-0.448-1-1V35h-7c-1.105,0-2-0.895-2-2v-7c0-1.105,0.895-2,2-2h7v-5.494 C27,10.675,31.397,6,38.763,6c2.737,0,4.511,0.172,5.685,0.286l0,0C45.327,6.365,46,7.102,46,7.985v7.31 C46,16.236,45.237,17,44.295,17l-3.684,0.002c-1.121,0-1.859,0.17-2.195,0.505c-0.422,0.422-0.42,1.38-0.417,2.594L38,24h6.721 c1.196,0,2.125,1.044,1.987,2.232l-0.934,7C45.656,34.24,44.802,35,43.787,35H38v22C38,57.552,37.552,58,37,58z M29,56h7V33h7.808 l0.934-7h-8.7L36,20.115c-0.004-1.547-0.008-3.008,1.002-4.02C37.746,15.348,38.894,15,40.613,15L44,15.042V8.23 c-1.18-0.114-2.777-0.252-5.237-0.252C32.467,7.978,29,11.709,29,18.484V26h-9v7h9V56z"/><g><linearGradient id="tnlUUDtE6nUCG4rryMwCkb" x1="32.247" x2="32.247" y1="10.462" y2="54.005" gradientUnits="userSpaceOnUse" spreadMethod="reflect"><stop offset="0" stop-color="#6dc7ff"/><stop offset="1" stop-color="#e6abff"/></linearGradient><path fill="url(#tnlUUDtE6nUCG4rryMwCkb)" d="M31,54V31h-9v-3h9v-9.494C31,12.862,33.612,10,38.763,10c1.307,0,2.362,0.041,3.237,0.096 v2.034l-1.398,0c-1.434,0-3.517,0.174-5.019,1.68c-1.593,1.598-1.588,3.722-1.583,5.43L34,28h8.495l-0.467,3H34v23H31z"/></g></svg>
