<svg xmlns="http://www.w3.org/2000/svg" viewBox="0 0 64 64" width="30" height="30"><linearGradient id="3o8Xlb7ifmJ62zZ3NyT7Sa" x1="32" x2="32" y1="10" y2="53" gradientUnits="userSpaceOnUse" spreadMethod="reflect"><stop offset="0" stop-color="#6dc7ff"/><stop offset="1" stop-color="#e6abff"/></linearGradient><path fill="url(#3o8Xlb7ifmJ62zZ3NyT7Sa)" d="M42.5,10c-4.242,0-8.025,5.786-10.499,14.834C29.526,15.786,25.741,10,21.501,10 C14.046,10,8,29.252,8,53h5.854c0-22.052,3.445-39.091,7.586-39.091c4.107,0,7.624,15.064,7.68,35.182h5.76 c0.056-20.118,3.573-35.182,7.68-35.182c4.142,0,7.586,17.039,7.586,39.091H56C56,29.252,49.956,10,42.5,10z"/><linearGradient id="3o8Xlb7ifmJ62zZ3NyT7Sb" x1="32" x2="32" y1="9.031" y2="53.969" gradientUnits="userSpaceOnUse" spreadMethod="reflect"><stop offset="0" stop-color="#1a6dff"/><stop offset="1" stop-color="#c822ff"/></linearGradient><path fill="none" stroke="url(#3o8Xlb7ifmJ62zZ3NyT7Sb)" stroke-miterlimit="10" stroke-width="1.937" d="M42.5,10 c-4.242,0-8.025,5.786-10.499,14.834C29.526,15.786,25.741,10,21.501,10C14.046,10,8,29.252,8,53h5.854 c0-22.052,3.445-39.091,7.586-39.091c4.107,0,7.624,15.064,7.68,35.182h5.76c0.056-20.118,3.573-35.182,7.68-35.182 c4.142,0,7.586,17.039,7.586,39.091H56C56,29.252,49.956,10,42.5,10z"/></svg>
