<svg xmlns="http://www.w3.org/2000/svg" viewBox="0 0 64 64" width="30" height="30"><linearGradient id="wtV4X~xJL4J4eJ7gA1HvYa" x1="32" x2="32" y1="7" y2="58.502" gradientUnits="userSpaceOnUse" spreadMethod="reflect"><stop offset="0" stop-color="#1a6dff"/><stop offset="1" stop-color="#c822ff"/></linearGradient><path fill="url(#wtV4X~xJL4J4eJ7gA1HvYa)" d="M57.029,8.794c-0.612-0.565-1.439-0.845-2.268-0.784L8.76,11.716C7.212,11.84,6,13.16,6,14.72 v34.559c0,1.561,1.212,2.88,2.759,3.004l46.003,3.707c0.08,0.006,0.159,0.009,0.238,0.009c0.748,0,1.476-0.282,2.03-0.793 C57.646,54.636,58,53.828,58,52.986V11.013C58,10.172,57.646,9.363,57.029,8.794z M54.923,10.004C54.95,10.001,54.977,10,55.004,10 c0.248,0,0.483,0.093,0.669,0.264c0.21,0.194,0.327,0.461,0.327,0.75V31H33V11.77L54.923,10.004z M8.92,13.711L31,11.931V31H8V14.72 C8,14.195,8.404,13.752,8.92,13.711z M8,49.279V33h23v19.068L8.919,50.289C8.404,50.248,8,49.804,8,49.279z M55.673,53.736 c-0.207,0.19-0.476,0.291-0.75,0.26L33,52.229V33h23v19.986C56,53.275,55.884,53.542,55.673,53.736z"/><linearGradient id="wtV4X~xJL4J4eJ7gA1HvYb" x1="44.5" x2="44.5" y1="13.25" y2="51.041" gradientUnits="userSpaceOnUse" spreadMethod="reflect"><stop offset="0" stop-color="#6dc7ff"/><stop offset="1" stop-color="#e6abff"/></linearGradient><path fill="url(#wtV4X~xJL4J4eJ7gA1HvYb)" d="M51,27H38c-0.552,0-1-0.448-1-1V15.935c0-0.526,0.408-0.963,0.933-0.998l13-0.867 C51.511,14.032,52,14.49,52,15.069V26C52,26.552,51.552,27,51,27z"/><linearGradient id="wtV4X~xJL4J4eJ7gA1HvYc" x1="44.5" x2="44.5" y1="13.251" y2="51.04" gradientUnits="userSpaceOnUse" spreadMethod="reflect"><stop offset="0" stop-color="#6dc7ff"/><stop offset="1" stop-color="#e6abff"/></linearGradient><path fill="url(#wtV4X~xJL4J4eJ7gA1HvYc)" d="M50.933,49.929l-13-0.867C37.408,49.027,37,48.591,37,48.064V38c0-0.552,0.448-1,1-1h13 c0.552,0,1,0.447,1,1v10.931C52,49.509,51.511,49.967,50.933,49.929z"/><linearGradient id="wtV4X~xJL4J4eJ7gA1HvYd" x1="19.5" x2="19.5" y1="14.501" y2="49.503" gradientUnits="userSpaceOnUse" spreadMethod="reflect"><stop offset="0" stop-color="#6dc7ff"/><stop offset="1" stop-color="#e6abff"/></linearGradient><path fill="url(#wtV4X~xJL4J4eJ7gA1HvYd)" d="M25.933,47.929l-13-0.867C12.408,47.027,12,46.591,12,46.064V38c0-0.552,0.448-1,1-1h13 c0.552,0,1,0.447,1,1v8.931C27,47.509,26.511,47.967,25.933,47.929z"/><linearGradient id="wtV4X~xJL4J4eJ7gA1HvYe" x1="19.5" x2="19.5" y1="14.5" y2="49.504" gradientUnits="userSpaceOnUse" spreadMethod="reflect"><stop offset="0" stop-color="#6dc7ff"/><stop offset="1" stop-color="#e6abff"/></linearGradient><path fill="url(#wtV4X~xJL4J4eJ7gA1HvYe)" d="M26,27H13c-0.552,0-1-0.448-1-1v-8.064c0-0.526,0.408-0.963,0.933-0.998l13-0.867 C26.511,16.032,27,16.49,27,17.069V26C27,26.552,26.552,27,26,27z"/></svg>
